<svg width="14" height="14" viewBox="0 0 14 14" fill="none" xmlns="http://www.w3.org/2000/svg">
<path fill-rule="evenodd" clip-rule="evenodd" d="M0.582031 7.0026C0.582031 3.45878 3.45487 0.585938 6.9987 0.585938C10.5425 0.585938 13.4154 3.45877 13.4154 7.0026C13.4154 10.5464 10.5425 13.4193 6.9987 13.4193C3.45487 13.4193 0.582031 10.5464 0.582031 7.0026ZM6.9987 1.7526C4.0992 1.7526 1.7487 4.10311 1.7487 7.0026C1.7487 9.90207 4.0992 12.2526 6.9987 12.2526C9.89817 12.2526 12.2487 9.90207 12.2487 7.0026C12.2487 4.10311 9.89817 1.7526 6.9987 1.7526Z" fill="white"/>
<path fill-rule="evenodd" clip-rule="evenodd" d="M2.46382 2.46773C2.69163 2.23992 3.06098 2.23992 3.28878 2.46773L11.5371 10.7161C11.7649 10.9439 11.7649 11.3132 11.5371 11.541C11.3093 11.7688 10.94 11.7688 10.7122 11.541L2.46382 3.29269C2.23602 3.06488 2.23602 2.69554 2.46382 2.46773Z" fill="white"/>
</svg>
